<?xml version="1.0" encoding="utf-8"?>
<!-- Generator: Adobe Illustrator 16.0.0, SVG Export Plug-In . SVG Version: 6.00 Build 0)  -->
<!DOCTYPE svg PUBLIC "-//W3C//DTD SVG 1.1//EN" "http://www.w3.org/Graphics/SVG/1.1/DTD/svg11.dtd">
<svg version="1.1" id="Layer_1" xmlns="http://www.w3.org/2000/svg" xmlns:xlink="http://www.w3.org/1999/xlink" x="0px" y="0px"
	 width="124px" height="34.852px" viewBox="296.836 83.944 124 34.852" enable-background="new 296.836 83.944 124 34.852"
	 xml:space="preserve">
<path d="M316.752,103.701c0.37,5.326,3.606,13.839,3.606,13.839l6.929-4.54c0,0-5.104-9.99-5.194-13.506
	c-0.122-4.841,0.949-12.903,0.949-12.903l-8.177-2.647c0,0,0.636,6.902,0.515,11.908l-6.708,0.175
	c-0.195-5.068-3.547-11.686-3.547-11.686l-8.288,3.501c0,0,5.357,8.687,5.231,13.527c-0.089,3.519-1.794,15.91-1.794,15.91
	l9.565,1.516c0,0,0.451-13.028-0.36-14.976L316.752,103.701z"/>
<path d="M337.054,104.368c0,0.604-0.21,1.109-0.624,1.526c-0.417,0.416-0.919,0.626-1.509,0.626h-4.606
	c-0.594,0-1.105-0.21-1.524-0.626c-0.416-0.417-0.625-0.923-0.625-1.526v-3.056c0-0.598,0.208-1.108,0.625-1.525
	c0.418-0.415,0.93-0.624,1.524-0.624h4.613c0.583,0,1.09,0.211,1.502,0.624c0.416,0.417,0.624,0.927,0.624,1.525V104.368
	L337.054,104.368z M335.834,104.368v-3.056c0-0.255-0.091-0.473-0.272-0.655s-0.392-0.271-0.641-0.271h-4.606
	c-0.253,0-0.472,0.09-0.653,0.271c-0.182,0.182-0.272,0.4-0.272,0.655v3.056c0,0.26,0.09,0.483,0.272,0.663
	c0.181,0.183,0.4,0.271,0.653,0.271h4.613c0.242,0,0.454-0.089,0.636-0.271C335.74,104.85,335.834,104.628,335.834,104.368z"/>
<path d="M346.811,104.368c0,0.604-0.209,1.109-0.633,1.526c-0.422,0.416-0.925,0.626-1.513,0.626h-6.139v-1.219h6.152
	c0.255,0,0.472-0.088,0.647-0.271c0.177-0.185,0.267-0.409,0.267-0.664c0-0.257-0.09-0.477-0.267-0.652
	c-0.176-0.177-0.393-0.264-0.647-0.264h-4.16c-0.586,0-1.094-0.21-1.511-0.638c-0.417-0.418-0.625-0.921-0.625-1.51
	c0-0.592,0.206-1.1,0.625-1.517c0.417-0.413,0.919-0.622,1.507-0.622h6.139v1.221h-6.137c-0.246,0-0.46,0.09-0.643,0.271
	c-0.181,0.182-0.271,0.402-0.271,0.655c0,0.254,0.09,0.476,0.271,0.651c0.183,0.178,0.397,0.262,0.643,0.262h4.15
	c0.588,0,1.095,0.207,1.515,0.629C346.602,103.277,346.811,103.782,346.811,104.368z"/>
<path d="M355.108,106.521h-3.671c-0.583,0-1.09-0.21-1.51-0.626c-0.418-0.417-0.632-0.923-0.632-1.526v-3.982h-1.545v-1.223h1.545
	v-3.076h1.224v3.076h4.59v1.223h-4.59v3.983c0,0.261,0.09,0.482,0.263,0.662c0.18,0.183,0.394,0.271,0.652,0.271h3.675V106.521
	L355.108,106.521z"/>
<path d="M357.791,97.305h-1.226v-1.218h1.227L357.791,97.305L357.791,97.305z M360.098,106.521h-1.381
	c-0.599,0-1.106-0.21-1.525-0.626c-0.418-0.417-0.627-0.923-0.627-1.526v-5.205h1.227v5.205c0,0.26,0.09,0.483,0.272,0.663
	c0.181,0.183,0.396,0.271,0.652,0.271h1.381V106.521L360.098,106.521z"/>
<path d="M370.457,106.521h-1.214v-5.208c0-0.255-0.09-0.473-0.277-0.655c-0.176-0.182-0.394-0.271-0.641-0.271h-4.604
	c-0.254,0-0.471,0.09-0.654,0.271c-0.18,0.182-0.265,0.4-0.265,0.655v5.208h-1.228v-5.208c0-0.598,0.207-1.108,0.623-1.525
	c0.423-0.415,0.925-0.624,1.525-0.624h4.604c0.591,0,1.09,0.211,1.506,0.624c0.416,0.417,0.629,0.927,0.629,1.525v5.208H370.457z"/>
<path d="M380.833,109.58h-1.218v-0.604c0-0.25-0.095-0.472-0.273-0.648c-0.186-0.187-0.397-0.27-0.653-0.27h-4.747
	c-0.6,0-1.097-0.208-1.513-0.627c-0.422-0.42-0.62-0.929-0.62-1.519c0-0.597,0.23-1.127,0.704-1.608
	c-0.38-0.466-0.568-0.95-0.568-1.453v-1.535c0-0.599,0.212-1.108,0.632-1.529c0.414-0.413,0.928-0.621,1.524-0.621h4.607
	c0.586,0,1.093,0.208,1.505,0.621c0.413,0.421,0.624,0.931,0.624,1.529v1.535c0,0.6-0.211,1.102-0.624,1.516
	c-0.412,0.422-0.919,0.626-1.505,0.626h-4.767c-0.254,0-0.467,0.096-0.649,0.277c-0.182,0.182-0.265,0.393-0.265,0.643
	c0,0.251,0.083,0.466,0.265,0.646c0.183,0.182,0.409,0.276,0.652,0.276h4.744c0.597,0,1.112,0.203,1.524,0.619
	c0.413,0.423,0.624,0.929,0.624,1.525v0.6H380.833z M379.615,102.846v-1.534c0-0.255-0.095-0.473-0.273-0.655
	c-0.186-0.182-0.392-0.271-0.634-0.271h-4.61c-0.253,0-0.476,0.09-0.655,0.271c-0.181,0.182-0.273,0.402-0.273,0.662v1.532
	c0,0.244,0.093,0.463,0.264,0.645c0.181,0.182,0.391,0.271,0.633,0.271h4.643c0.242,0,0.451-0.09,0.638-0.268
	C379.516,103.315,379.615,103.094,379.615,102.846z"/>
<path d="M391.183,106.521h-6.741c-0.597,0-1.112-0.21-1.527-0.626c-0.417-0.417-0.616-0.923-0.616-1.526v-3.056
	c0-0.598,0.199-1.108,0.616-1.525c0.415-0.415,0.931-0.624,1.527-0.624h4.605c0.586,0,1.095,0.209,1.508,0.623
	c0.415,0.418,0.628,0.921,0.628,1.516v2.15h-7.673v0.916c0,0.255,0.093,0.479,0.276,0.664c0.175,0.183,0.391,0.271,0.648,0.271
	h6.748V106.521L391.183,106.521L391.183,106.521z M389.959,102.225v-0.913c0-0.255-0.094-0.473-0.273-0.655
	c-0.183-0.182-0.396-0.271-0.639-0.271h-4.605c-0.256,0-0.48,0.09-0.648,0.271c-0.19,0.182-0.283,0.4-0.283,0.655v0.913H389.959z"/>
<path d="M399.251,100.386h-4.453c-0.254,0-0.467,0.09-0.65,0.271c-0.183,0.182-0.271,0.396-0.271,0.655v5.201h-1.225v-5.201
	c0-0.6,0.206-1.108,0.625-1.526c0.417-0.419,0.931-0.624,1.527-0.624h4.447V100.386L399.251,100.386L399.251,100.386z"/>
<path d="M401.938,106.521h-1.225v-1.219h1.225V106.521L401.938,106.521z"/>
<path d="M411.697,104.368c0,0.604-0.214,1.109-0.638,1.526c-0.424,0.416-0.922,0.626-1.514,0.626h-6.135v-1.219h6.147
	c0.256,0,0.472-0.088,0.651-0.271c0.183-0.185,0.264-0.409,0.264-0.664c0-0.257-0.081-0.477-0.264-0.652
	c-0.18-0.177-0.396-0.264-0.651-0.264H405.4c-0.591,0-1.095-0.21-1.505-0.638c-0.422-0.418-0.634-0.921-0.634-1.51
	c0-0.592,0.211-1.1,0.634-1.517c0.41-0.413,0.914-0.622,1.505-0.622h6.138v1.221H405.4c-0.242,0-0.456,0.09-0.639,0.271
	c-0.182,0.182-0.278,0.402-0.278,0.655c0,0.254,0.097,0.476,0.278,0.651c0.183,0.178,0.396,0.262,0.639,0.262h4.146
	c0.592,0,1.093,0.207,1.515,0.629C411.483,103.277,411.697,103.782,411.697,104.368z"/>
<path d="M414.224,96.087v10.434h-1.227V96.087H414.224z M420.829,106.521h-1.219v-0.623c0-0.261-0.083-0.469-0.27-0.654
	c-0.18-0.184-0.398-0.271-0.654-0.271H416.4c-0.586,0-1.091-0.204-1.514-0.624c-0.42-0.42-0.629-0.929-0.629-1.517
	c0-0.587,0.209-1.097,0.631-1.512c0.421-0.419,0.926-0.627,1.512-0.627h2.286c0.256,0,0.479-0.088,0.654-0.27
	c0.188-0.183,0.277-0.396,0.277-0.642v-0.617h1.219v0.617c0,0.588-0.213,1.091-0.629,1.511c-0.414,0.417-0.915,0.622-1.521,0.622
	h-2.298c-0.245,0-0.469,0.091-0.646,0.274c-0.171,0.18-0.264,0.4-0.264,0.658c0,0.248,0.093,0.469,0.264,0.646
	c0.177,0.17,0.401,0.266,0.646,0.266h2.298c0.606,0,1.107,0.209,1.521,0.629c0.416,0.422,0.629,0.931,0.629,1.52v0.614
	L420.829,106.521L420.829,106.521z"/>
</svg>
