<?xml version="1.0" encoding="utf-8"?>
<!-- Generator: Adobe Illustrator 16.0.0, SVG Export Plug-In . SVG Version: 6.00 Build 0)  -->
<!DOCTYPE svg PUBLIC "-//W3C//DTD SVG 1.1//EN" "http://www.w3.org/Graphics/SVG/1.1/DTD/svg11.dtd">
<svg version="1.1" id="Layer_1" xmlns="http://www.w3.org/2000/svg" xmlns:xlink="http://www.w3.org/1999/xlink" x="0px" y="0px"
	 width="126px" height="36.682px" viewBox="246.279 80.319 126 36.682" enable-background="new 246.279 80.319 126 36.682"
	 xml:space="preserve">
<g>
	<g>
		<path d="M247.902,107.32l1.058,0.485c0.444,0.21,0.653,0.707,0.488,1.16l-0.413,1.095c-0.31,0.843-0.204,1.735,0.31,2.461
			c0.5,0.733,1.33,1.166,2.21,1.166c0.329,0,0.651-0.064,0.959-0.181l1.092-0.41c0.102-0.05,0.208-0.063,0.323-0.063
			c0.354,0,0.69,0.207,0.837,0.549l0.49,1.062c0.441,0.971,1.387,1.577,2.445,1.577c1.062,0,2.007-0.606,2.45-1.577l0.484-1.062
			c0.147-0.328,0.472-0.549,0.838-0.549c0.105,0,0.222,0.013,0.327,0.063l1.087,0.426c0.315,0.116,0.637,0.191,0.959,0.191l0,0
			c0.87,0,1.696-0.459,2.212-1.18c0.5-0.738,0.618-1.631,0.308-2.474l-0.412-1.095c-0.161-0.453,0.043-0.95,0.487-1.16l1.059-0.485
			c0.975-0.446,1.577-1.386,1.577-2.446c0-1.064-0.603-2.007-1.577-2.452l-1.059-0.482c-0.444-0.212-0.647-0.707-0.487-1.162
			l0.412-1.093c0.31-0.836,0.207-1.737-0.308-2.461c-0.5-0.738-1.327-1.166-2.212-1.166c-0.323,0-0.645,0.059-0.959,0.177
			l-1.087,0.414c-0.105,0.046-0.207,0.059-0.327,0.059c-0.35,0-0.69-0.207-0.838-0.542l-0.484-1.063
			c-0.443-0.975-1.388-1.579-2.45-1.579c-1.058,0-2.047,0.617-2.489,1.595l-0.487,1.058c-0.148,0.324-0.474,0.546-0.842,0.546
			c-0.103,0-0.216-0.016-0.322-0.062l-1.093-0.412c-0.31-0.118-0.631-0.179-0.954-0.179c-0.872,0-1.697,0.447-2.214,1.168
			c-0.503,0.736-0.616,1.637-0.309,2.461l0.412,1.086c0.165,0.465-0.043,0.961-0.485,1.167l-1.062,0.489
			c-0.973,0.44-1.577,1.384-1.577,2.441C246.279,105.95,246.926,106.873,247.902,107.32z M248.623,104.031l1.062-0.487
			c1.283-0.59,1.902-2.081,1.399-3.386l-0.41-1.096c-0.151-0.393,0-0.691,0.102-0.84c0.235-0.352,0.677-0.5,1.089-0.335l1.09,0.414
			c0.31,0.116,0.618,0.177,0.942,0.177l0,0c1.046,0,2.008-0.625,2.447-1.578l0.486-1.061c0.223-0.502,0.694-0.548,0.843-0.548
			c0.144,0,0.604,0.046,0.838,0.548l0.488,1.061c0.442,0.953,1.4,1.578,2.446,1.578c0.324,0,0.633-0.062,0.942-0.177l1.09-0.414
			c0.415-0.147,0.843,0,1.093,0.335c0.1,0.148,0.25,0.447,0.1,0.84l-0.409,1.096c-0.486,1.306,0.118,2.796,1.402,3.386l1.059,0.487
			c0.503,0.227,0.547,0.693,0.547,0.842c0,0.143-0.044,0.608-0.547,0.838l-1.059,0.488c-1.284,0.588-1.905,2.079-1.402,3.386
			l0.409,1.091c0.15,0.399,0,0.695-0.1,0.842c-0.234,0.358-0.678,0.498-1.093,0.34l-1.09-0.413
			c-0.309-0.123-0.618-0.173-0.942-0.173c-1.046,0-2.004,0.615-2.446,1.574l-0.488,1.06c-0.218,0.501-0.694,0.545-0.838,0.545
			c-0.148,0-0.604-0.044-0.843-0.545l-0.486-1.06c-0.439-0.959-1.401-1.574-2.447-1.574c-0.324,0-0.633,0.05-0.942,0.173
			l-1.09,0.413c-0.412,0.152-0.837,0-1.089-0.34c-0.102-0.146-0.253-0.442-0.102-0.842l0.41-1.091
			c0.487-1.307-0.117-2.798-1.399-3.386l-1.062-0.488c-0.503-0.223-0.543-0.695-0.543-0.838
			C248.08,104.725,248.12,104.264,248.623,104.031z"/>
		<path d="M257.656,108.699c2.11,0,3.834-1.723,3.834-3.826c0-2.109-1.724-3.839-3.834-3.839c-2.107,0-3.832,1.73-3.832,3.839
			C253.824,106.977,255.536,108.699,257.656,108.699z M257.656,102.809c1.138,0,2.066,0.928,2.066,2.064
			c0,1.133-0.928,2.063-2.066,2.063c-1.133,0-2.06-0.93-2.06-2.063C255.596,103.737,256.523,102.809,257.656,102.809z"/>
	</g>
</g>
<g>
	<g>
		<path d="M264.542,88.166l0.667,0.644c0.278,0.27,0.297,0.699,0.053,1l-0.595,0.702c-0.453,0.549-0.612,1.246-0.417,1.922
			c0.176,0.682,0.684,1.22,1.344,1.457c0.24,0.084,0.502,0.124,0.763,0.123l0.925-0.021c0.087-0.007,0.168,0.008,0.254,0.038
			c0.266,0.095,0.467,0.339,0.489,0.632l0.08,0.923c0.073,0.841,0.618,1.545,1.412,1.822c0.792,0.282,1.658,0.077,2.248-0.53
			l0.643-0.665c0.193-0.206,0.496-0.284,0.772-0.186c0.078,0.026,0.159,0.069,0.226,0.128l0.703,0.61
			c0.197,0.169,0.424,0.31,0.667,0.395l0,0c0.647,0.233,1.385,0.11,1.963-0.298c0.569-0.416,0.893-1.061,0.887-1.768l-0.02-0.924
			c0-0.386,0.284-0.707,0.671-0.739l0.923-0.086c0.84-0.07,1.544-0.62,1.821-1.412c0.282-0.794,0.077-1.658-0.529-2.246
			l-0.666-0.645c-0.278-0.27-0.296-0.7-0.055-0.996l0.597-0.705c0.453-0.546,0.615-1.25,0.415-1.927
			c-0.178-0.682-0.682-1.22-1.342-1.449c-0.242-0.09-0.502-0.13-0.765-0.123l-0.925,0.021c-0.084,0.003-0.168-0.012-0.253-0.044
			c-0.266-0.092-0.468-0.336-0.488-0.63l-0.08-0.922c-0.078-0.842-0.622-1.542-1.413-1.824c-0.794-0.279-1.695-0.078-2.283,0.53
			l-0.646,0.667c-0.193,0.202-0.498,0.28-0.771,0.188c-0.079-0.031-0.16-0.071-0.224-0.132l-0.709-0.598
			c-0.2-0.17-0.427-0.3-0.667-0.384c-0.651-0.232-1.387-0.114-1.961,0.283c-0.571,0.42-0.896,1.063-0.885,1.76l0.023,0.923
			c0,0.385-0.289,0.709-0.671,0.742l-0.922,0.083c-0.847,0.078-1.544,0.624-1.828,1.415
			C263.695,86.71,263.932,87.576,264.542,88.166z M265.951,85.896l0.923-0.08c1.112-0.105,1.97-1.051,1.943-2.166l-0.021-0.923
			c-0.004-0.339,0.182-0.521,0.298-0.602c0.273-0.2,0.643-0.195,0.905,0.034l0.71,0.596c0.199,0.171,0.412,0.297,0.656,0.382l0,0
			c0.785,0.278,1.661,0.067,2.247-0.531l0.643-0.665c0.296-0.315,0.663-0.224,0.772-0.185c0.111,0.038,0.442,0.194,0.485,0.629
			l0.083,0.923c0.076,0.833,0.628,1.546,1.413,1.825c0.241,0.082,0.489,0.123,0.749,0.117l0.925-0.021
			c0.348-0.001,0.627,0.224,0.728,0.541c0.037,0.139,0.066,0.402-0.148,0.659l-0.593,0.703c-0.715,0.853-0.655,2.127,0.146,2.906
			l0.666,0.644c0.316,0.297,0.227,0.664,0.187,0.772c-0.037,0.109-0.194,0.44-0.628,0.481l-0.922,0.087
			c-1.114,0.097-1.97,1.049-1.944,2.162l0.021,0.924c0.005,0.334-0.182,0.517-0.299,0.601c-0.273,0.203-0.643,0.196-0.907-0.035
			l-0.704-0.599c-0.202-0.167-0.416-0.291-0.658-0.382c-0.785-0.272-1.663-0.065-2.25,0.535l-0.642,0.664
			c-0.299,0.316-0.662,0.224-0.773,0.186c-0.107-0.036-0.439-0.195-0.482-0.631l-0.083-0.921c-0.075-0.832-0.629-1.55-1.413-1.825
			c-0.243-0.086-0.489-0.123-0.752-0.117l-0.925,0.018c-0.344,0-0.625-0.216-0.723-0.541c-0.038-0.137-0.073-0.395,0.145-0.652
			l0.596-0.709c0.712-0.853,0.655-2.121-0.148-2.9l-0.668-0.643c-0.312-0.3-0.222-0.664-0.186-0.772
			C265.363,86.271,265.514,85.942,265.951,85.896z"/>
		<path d="M271.472,91.779c1.575,0.558,3.321-0.278,3.877-1.852c0.553-1.574-0.277-3.319-1.85-3.877
			c-1.578-0.555-3.32,0.274-3.879,1.853C269.063,89.475,269.884,91.218,271.472,91.779z M273.028,87.37
			c0.846,0.303,1.296,1.24,0.996,2.091c-0.298,0.847-1.24,1.293-2.084,0.994c-0.85-0.3-1.301-1.239-1-2.087
			C271.241,87.518,272.181,87.071,273.028,87.37z"/>
	</g>
</g>
<g>
	<path d="M274.771,110.611c0-0.181,0.061-0.323,0.174-0.446c0.119-0.123,0.268-0.178,0.446-0.178c0.24,0,0.425,0.1,0.549,0.304
		c0.343,0.559,0.806,1.001,1.381,1.351c0.582,0.34,1.275,0.504,2.079,0.504c1.076,0,1.904-0.216,2.479-0.647
		c0.577-0.436,0.864-1.079,0.864-1.927c0-0.388-0.083-0.729-0.253-1.024c-0.168-0.301-0.391-0.547-0.678-0.733
		c-0.284-0.196-0.612-0.365-0.979-0.521c-0.367-0.16-0.751-0.303-1.16-0.433c-0.403-0.133-0.81-0.264-1.212-0.394
		c-0.407-0.14-0.793-0.312-1.161-0.493c-0.368-0.202-0.694-0.416-0.979-0.671c-0.287-0.256-0.515-0.563-0.679-0.95
		c-0.17-0.38-0.251-0.826-0.251-1.321c0-0.953,0.352-1.75,1.059-2.371c0.704-0.635,1.732-0.95,3.083-0.95
		c0.912,0,1.728,0.183,2.458,0.538c0.724,0.353,1.294,0.845,1.714,1.464c0.072,0.116,0.114,0.24,0.114,0.371
		c0,0.182-0.059,0.33-0.177,0.447c-0.117,0.12-0.268,0.173-0.442,0.173c-0.21,0-0.38-0.082-0.514-0.25
		c-0.821-1.025-1.873-1.541-3.152-1.541c-0.958,0-1.664,0.201-2.127,0.606c-0.457,0.402-0.688,0.899-0.688,1.513
		c0,0.347,0.087,0.649,0.251,0.928c0.167,0.265,0.396,0.492,0.682,0.669c0.283,0.175,0.609,0.346,0.978,0.492
		c0.368,0.151,0.755,0.294,1.159,0.434c0.408,0.131,0.811,0.275,1.22,0.428c0.406,0.143,0.79,0.329,1.157,0.528
		c0.369,0.21,0.692,0.456,0.979,0.714c0.283,0.266,0.51,0.604,0.679,1.001c0.166,0.395,0.252,0.845,0.252,1.347
		c0,1.215-0.405,2.154-1.214,2.809c-0.807,0.646-1.96,0.978-3.461,0.978c-1.05,0-1.981-0.236-2.79-0.695
		c-0.808-0.456-1.385-1.021-1.744-1.706C274.802,110.829,274.771,110.719,274.771,110.611z"/>
	<path d="M286.052,101.518c0-0.515,0.246-0.777,0.742-0.777c0.488,0,0.73,0.262,0.73,0.777c0,0.235-0.063,0.41-0.19,0.545
		c-0.126,0.128-0.307,0.196-0.54,0.196c-0.236,0-0.42-0.068-0.551-0.196C286.114,101.928,286.052,101.753,286.052,101.518z
		 M286.165,112.618v-7.908c0-0.178,0.06-0.329,0.18-0.449c0.121-0.114,0.266-0.166,0.448-0.166c0.176,0,0.322,0.052,0.438,0.166
		c0.117,0.12,0.177,0.271,0.177,0.449v7.908c0,0.169-0.06,0.321-0.177,0.441c-0.117,0.107-0.263,0.174-0.438,0.174
		c-0.183,0-0.328-0.066-0.448-0.174C286.225,112.94,286.165,112.787,286.165,112.618z"/>
	<path d="M289.935,112.618v-7.908c0-0.178,0.06-0.329,0.181-0.449c0.123-0.114,0.27-0.166,0.447-0.166
		c0.178,0,0.326,0.052,0.44,0.166c0.12,0.12,0.177,0.271,0.177,0.449v0.626c0.178-0.385,0.492-0.709,0.948-0.967
		c0.45-0.262,0.981-0.391,1.581-0.391c0.767,0,1.411,0.125,1.94,0.373c0.52,0.246,0.911,0.571,1.157,0.984
		c0.575-0.905,1.526-1.357,2.842-1.357c0.574,0,1.085,0.063,1.529,0.203c0.44,0.134,0.798,0.315,1.062,0.528
		c0.268,0.213,0.485,0.479,0.654,0.781c0.167,0.315,0.28,0.621,0.341,0.931c0.061,0.305,0.091,0.641,0.091,0.995v5.201
		c0,0.169-0.059,0.321-0.175,0.441c-0.118,0.107-0.264,0.174-0.442,0.174s-0.329-0.066-0.448-0.174
		c-0.122-0.12-0.183-0.272-0.183-0.441v-4.944c0-0.832-0.176-1.477-0.543-1.928c-0.363-0.444-0.995-0.667-1.885-0.667
		c-0.816,0-1.427,0.199-1.832,0.615c-0.4,0.409-0.602,0.984-0.602,1.723v5.201c0,0.169-0.061,0.321-0.174,0.441
		c-0.117,0.107-0.267,0.174-0.446,0.174c-0.178,0-0.325-0.066-0.446-0.174c-0.12-0.12-0.179-0.272-0.179-0.441v-4.944
		c0-0.839-0.177-1.485-0.522-1.935c-0.351-0.444-0.972-0.66-1.873-0.66c-0.861,0-1.477,0.235-1.844,0.705
		c-0.368,0.472-0.552,1.15-0.552,2.021v4.813c0,0.169-0.058,0.321-0.177,0.441c-0.114,0.107-0.262,0.174-0.44,0.174
		c-0.177,0-0.324-0.066-0.447-0.174C289.994,112.94,289.935,112.787,289.935,112.618z"/>
	<path d="M305.654,116.366V104.71c0-0.176,0.062-0.322,0.185-0.443c0.123-0.12,0.271-0.172,0.442-0.172
		c0.173,0,0.318,0.052,0.437,0.172c0.121,0.121,0.181,0.268,0.181,0.443v0.626c0.2-0.367,0.542-0.689,1.021-0.955
		c0.477-0.27,1.022-0.402,1.63-0.402c1.297,0,2.299,0.388,3.007,1.16c0.706,0.775,1.062,1.949,1.062,3.508
		c0,1.557-0.358,2.737-1.066,3.515c-0.71,0.782-1.71,1.175-3.002,1.175c-0.605,0-1.138-0.134-1.606-0.4
		c-0.47-0.274-0.82-0.595-1.045-0.966v4.396c0,0.167-0.062,0.313-0.186,0.442c-0.123,0.123-0.268,0.191-0.432,0.191
		c-0.167,0-0.311-0.068-0.437-0.191C305.716,116.679,305.654,116.533,305.654,116.366z M307.6,105.974
		c-0.494,0.582-0.741,1.477-0.741,2.673c0,1.188,0.246,2.088,0.737,2.675c0.489,0.586,1.143,0.884,1.954,0.884
		c0.913,0,1.607-0.298,2.085-0.884c0.479-0.587,0.716-1.486,0.716-2.675c0-1.189-0.246-2.08-0.738-2.666
		c-0.491-0.591-1.192-0.883-2.103-0.883C308.731,105.098,308.094,105.386,307.6,105.974z"/>
	<path d="M315.364,110.955V99.844c0-0.169,0.063-0.31,0.187-0.433c0.132-0.123,0.278-0.185,0.44-0.185
		c0.169,0,0.318,0.059,0.438,0.182c0.122,0.121,0.18,0.266,0.18,0.436v11.111c0,0.75,0.26,1.123,0.778,1.123
		c0.16,0,0.294,0.055,0.415,0.16c0.119,0.111,0.175,0.252,0.175,0.414c0,0.165-0.056,0.303-0.175,0.411
		c-0.121,0.108-0.255,0.17-0.415,0.17c-0.651,0-1.15-0.193-1.499-0.58C315.537,112.27,315.364,111.709,315.364,110.955z"/>
	<path d="M319.213,106.541c0-2.264,0.53-3.968,1.591-5.114c1.059-1.141,2.552-1.717,4.48-1.717c0.919,0,1.761,0.187,2.531,0.554
		c0.769,0.369,1.384,0.867,1.848,1.509c0.088,0.127,0.132,0.264,0.132,0.405c0,0.18-0.059,0.33-0.177,0.451
		c-0.115,0.122-0.263,0.179-0.44,0.179c-0.2,0-0.373-0.08-0.514-0.261c-0.348-0.476-0.823-0.872-1.426-1.175
		c-0.599-0.303-1.254-0.46-1.955-0.46c-1.52,0-2.685,0.477-3.497,1.408c-0.813,0.946-1.22,2.344-1.22,4.222
		c0,1.969,0.397,3.387,1.195,4.274c0.794,0.894,1.969,1.329,3.521,1.329c0.678,0,1.316-0.135,1.925-0.401
		c0.604-0.266,1.09-0.668,1.456-1.191c0.122-0.171,0.29-0.262,0.514-0.262c0.178,0,0.326,0.066,0.44,0.188
		c0.118,0.124,0.177,0.271,0.177,0.443c0,0.132-0.039,0.255-0.114,0.369c-0.424,0.624-1.039,1.118-1.85,1.495
		c-0.803,0.381-1.656,0.57-2.548,0.57c-1.95,0-3.449-0.559-4.5-1.666C319.733,110.583,319.213,108.861,319.213,106.541z"/>
	<path d="M332.395,112.156c-0.716-0.784-1.077-1.958-1.077-3.509c0-1.559,0.359-2.732,1.072-3.508
		c0.717-0.772,1.716-1.16,3.009-1.16c1.3,0,2.31,0.388,3.017,1.16c0.718,0.775,1.072,1.949,1.072,3.508
		c0,1.551-0.354,2.725-1.072,3.509c-0.707,0.788-1.717,1.181-3.017,1.181C334.115,113.336,333.116,112.944,332.395,112.156z
		 M332.581,108.647c0,2.372,0.944,3.559,2.818,3.559c1.885,0,2.828-1.187,2.828-3.559c0-2.37-0.942-3.549-2.828-3.549
		C333.524,105.098,332.581,106.277,332.581,108.647z"/>
	<path d="M340.847,108.647c0-3.119,1.303-4.668,3.904-4.668c0.587,0,1.109,0.125,1.578,0.373c0.471,0.246,0.824,0.541,1.07,0.891
		v-5.398c0-0.175,0.062-0.326,0.18-0.443c0.12-0.116,0.264-0.174,0.441-0.174c0.177,0,0.328,0.059,0.45,0.174
		c0.119,0.117,0.176,0.268,0.176,0.443v9.652c0,1.243-0.345,2.193-1.042,2.854c-0.699,0.652-1.621,0.986-2.768,0.986
		c-1.276,0-2.26-0.393-2.955-1.175C341.19,111.384,340.847,110.203,340.847,108.647z M342.092,108.647
		c0,2.372,0.914,3.559,2.743,3.559c0.787,0,1.412-0.225,1.878-0.688c0.456-0.456,0.686-1.128,0.686-2.021v-2.678
		c-0.011-0.05-0.044-0.104-0.086-0.188c-0.042-0.075-0.138-0.212-0.286-0.41c-0.149-0.201-0.31-0.37-0.494-0.524
		c-0.181-0.158-0.423-0.293-0.728-0.418c-0.305-0.123-0.626-0.181-0.97-0.181c-0.889,0-1.567,0.296-2.042,0.883
		C342.326,106.573,342.092,107.457,342.092,108.647z"/>
	<path d="M351.042,101.518c0-0.515,0.247-0.777,0.742-0.777c0.485,0,0.729,0.262,0.729,0.777c0,0.235-0.063,0.41-0.194,0.545
		c-0.125,0.128-0.303,0.196-0.535,0.196c-0.237,0-0.414-0.068-0.55-0.196C351.106,101.928,351.042,101.753,351.042,101.518z
		 M351.155,112.618v-7.908c0-0.178,0.058-0.329,0.179-0.449c0.123-0.114,0.27-0.166,0.451-0.166c0.176,0,0.324,0.052,0.445,0.166
		c0.109,0.12,0.172,0.271,0.172,0.449v7.908c0,0.169-0.063,0.321-0.172,0.441c-0.121,0.107-0.269,0.174-0.445,0.174
		c-0.181,0-0.328-0.066-0.451-0.174C351.212,112.94,351.155,112.787,351.155,112.618z"/>
	<path d="M354.927,112.618v-7.908c0-0.178,0.064-0.329,0.183-0.449c0.119-0.114,0.272-0.166,0.446-0.166
		c0.176,0,0.326,0.052,0.446,0.166c0.117,0.12,0.171,0.271,0.171,0.449v0.626c0.199-0.394,0.524-0.716,0.992-0.976
		c0.461-0.255,0.995-0.382,1.605-0.382c0.573,0,1.074,0.063,1.512,0.203c0.439,0.134,0.775,0.315,1.037,0.528
		c0.26,0.213,0.466,0.479,0.618,0.781c0.161,0.315,0.271,0.619,0.322,0.928c0.057,0.3,0.083,0.64,0.083,0.998v5.201
		c0,0.169-0.063,0.321-0.181,0.441c-0.12,0.107-0.259,0.174-0.438,0.174c-0.181,0-0.326-0.066-0.449-0.174
		c-0.119-0.12-0.181-0.272-0.181-0.441v-4.944c0-0.413-0.037-0.763-0.101-1.064c-0.066-0.289-0.184-0.561-0.351-0.805
		s-0.403-0.428-0.713-0.55c-0.313-0.116-0.701-0.176-1.159-0.176c-1.729,0-2.598,0.904-2.598,2.727v4.813
		c0,0.169-0.054,0.321-0.171,0.441c-0.12,0.107-0.27,0.174-0.446,0.174c-0.174,0-0.327-0.066-0.446-0.174
		C354.991,112.94,354.927,112.787,354.927,112.618z"/>
	<path d="M363.953,114.264c0-0.433,0.136-0.819,0.398-1.167c0.265-0.346,0.628-0.602,1.086-0.801
		c-0.375-0.116-0.672-0.315-0.889-0.591c-0.228-0.282-0.337-0.609-0.337-0.98c0-0.561,0.264-1.017,0.791-1.356
		c-0.478-0.587-0.713-1.296-0.713-2.127c0-1,0.32-1.791,0.95-2.376c0.633-0.599,1.523-0.887,2.642-0.887
		c0.835,0,1.527,0.156,2.083,0.485c0.188-0.343,0.406-0.604,0.666-0.79c0.259-0.178,0.612-0.271,1.06-0.271
		c0.157,0,0.292,0.063,0.403,0.167c0.11,0.11,0.162,0.246,0.162,0.409c0,0.156-0.052,0.285-0.162,0.402
		c-0.112,0.103-0.247,0.153-0.403,0.153c-0.448,0-0.756,0.208-0.929,0.597c0.463,0.576,0.696,1.276,0.696,2.11
		c0,1.004-0.313,1.802-0.942,2.391c-0.637,0.582-1.513,0.881-2.634,0.881c-0.823,0-1.525-0.158-2.093-0.492
		c-0.237,0.18-0.352,0.418-0.352,0.704c0,0.547,0.477,0.813,1.437,0.813h1.995c1.01,0,1.832,0.227,2.458,0.677
		c0.635,0.439,0.952,1.107,0.952,1.981c0,0.645-0.188,1.187-0.564,1.621c-0.38,0.422-0.872,0.726-1.477,0.905
		c-0.606,0.183-1.317,0.278-2.134,0.278c-0.425,0-0.83-0.032-1.208-0.077c-0.377-0.06-0.748-0.144-1.115-0.275
		c-0.369-0.125-0.684-0.298-0.947-0.494c-0.267-0.203-0.471-0.459-0.64-0.785C364.04,115.048,363.953,114.679,363.953,114.264z
		 M365.222,114.264c0,0.38,0.134,0.699,0.419,0.945c0.272,0.249,0.62,0.436,1.038,0.531c0.418,0.107,0.897,0.165,1.443,0.165
		c0.846,0,1.54-0.136,2.085-0.419c0.537-0.277,0.808-0.7,0.808-1.291c0-0.993-0.716-1.485-2.147-1.485h-2.019
		c-0.55,0.088-0.961,0.277-1.228,0.542C365.355,113.523,365.222,113.859,365.222,114.264z M366.178,105.682
		c-0.404,0.393-0.604,0.914-0.604,1.56c0,0.656,0.201,1.177,0.604,1.565c0.407,0.379,0.97,0.579,1.704,0.579
		c0.737,0,1.301-0.2,1.713-0.579c0.398-0.389,0.602-0.909,0.602-1.565c0-0.646-0.204-1.167-0.602-1.56
		c-0.412-0.39-0.976-0.584-1.713-0.584C367.148,105.098,366.584,105.292,366.178,105.682z"/>
</g>
</svg>
