<?xml version="1.0" encoding="utf-8"?>
<!-- Generator: Adobe Illustrator 16.0.0, SVG Export Plug-In . SVG Version: 6.00 Build 0)  -->
<!DOCTYPE svg PUBLIC "-//W3C//DTD SVG 1.1//EN" "http://www.w3.org/Graphics/SVG/1.1/DTD/svg11.dtd">
<svg version="1.1" id="Layer_1" xmlns="http://www.w3.org/2000/svg" xmlns:xlink="http://www.w3.org/1999/xlink" x="0px" y="0px"
	 width="41.625px" height="24px" viewBox="2.375 12 41.625 24" enable-background="new 2.375 12 41.625 24" xml:space="preserve">
<path d="M14.375,12c3.32,0,6,2.68,6,6s-2.68,6-6,6s-6-2.68-6-6S11.055,12,14.375,12z M26.375,36h-24v-2
	c0-4,8-6.2,12-6.2s12,2.2,12,6.2V36z"/>
<path d="M41.98,15.716v-2l-6,4l-6-4v2l6,4L41.98,15.716z M44,24H28V12h16V24z"/>
<path d="M32.843,31.046l1.105,1.878L32.677,36l-3.62-0.938c0.239-2.16,1.188-4.215,2.729-5.815
	c0.611-0.639,1.312-1.204,2.101-1.669c0.789-0.466,1.624-0.803,2.479-1.027c2.158-0.576,4.404-0.403,6.409,0.436l-0.938,3.621
	l-3.308-0.38l-1.106-1.878c-0.868,0.171-1.724,0.475-2.524,0.947C34.095,29.769,33.416,30.367,32.843,31.046z"/>
</svg>
