<?xml version="1.0" standalone="no"?><svg xmlns="http://www.w3.org/2000/svg" xmlns:xlink="http://www.w3.org/1999/xlink" style="isolation:isolate" viewBox="754.375 260.719 12 12" width="12" height="12"><defs><clipPath id="_clipPath_XWaZSLjyvfDnN1jcIrDPTYxWoR7j2okv"><rect x="754.375" y="260.719" width="12" height="12"/></clipPath></defs><g clip-path="url(#_clipPath_XWaZSLjyvfDnN1jcIrDPTYxWoR7j2okv)"><path d=" M 761.375 260.719 L 761.375 261.719 L 764.668 261.719 L 758.398 267.992 L 759.102 268.696 L 765.375 262.426 L 765.375 265.719 L 766.375 265.719 L 766.375 260.719 L 761.375 260.719 Z  M 756.375 262.719 C 755.27 262.719 754.375 263.614 754.375 264.719 L 754.375 270.719 C 754.375 271.823 755.27 272.719 756.375 272.719 L 762.375 272.719 C 763.48 272.719 764.375 271.823 764.375 270.719 L 764.375 265.719 L 763.375 266.719 L 763.375 270.719 C 763.375 271.269 762.925 271.719 762.375 271.719 L 756.375 271.719 C 755.825 271.719 755.375 271.269 755.375 270.719 L 755.375 264.719 C 755.375 264.169 755.825 263.719 756.375 263.719 L 760.375 263.719 L 761.375 262.719 L 756.375 262.719 Z "/></g></svg>
