<?xml version="1.0" encoding="utf-8"?>
<!-- Generator: Adobe Illustrator 16.0.0, SVG Export Plug-In . SVG Version: 6.00 Build 0)  -->
<!DOCTYPE svg PUBLIC "-//W3C//DTD SVG 1.1//EN" "http://www.w3.org/Graphics/SVG/1.1/DTD/svg11.dtd">
<svg version="1.1" id="Layer_1" xmlns="http://www.w3.org/2000/svg" xmlns:xlink="http://www.w3.org/1999/xlink" x="0px" y="0px"
	 width="17.999px" height="26.57px" viewBox="0 0 17.999 26.57" enable-background="new 0 0 17.999 26.57" xml:space="preserve">
<path fill="#FFFFFF" d="M15.428,12.856h-1.286h-9c0-0.171,0-0.257,0-0.429v-6c0-2.143,1.714-3.857,3.857-3.857
	s3.857,1.714,3.857,3.857v0.857v2.229c0,0.857,0.6,1.628,1.286,1.628s1.286-0.686,1.286-1.628V7.285V6.428
	C15.428,2.914,12.514,0,9,0S2.571,2.914,2.571,6.428v6.428C1.114,12.856,0,13.971,0,15.428v8.571c0,1.457,1.114,2.571,2.571,2.571
	h12.856c1.457,0,2.571-1.114,2.571-2.571v-8.571C17.999,14.056,16.885,12.856,15.428,12.856z M9.428,19.627v2.229
	c0,0.257-0.171,0.429-0.428,0.429s-0.429-0.172-0.429-0.429v-2.229c-0.514-0.171-0.857-0.686-0.857-1.2
	c0-0.686,0.6-1.286,1.286-1.286c0.686,0,1.286,0.6,1.286,1.286C10.285,19.027,9.942,19.456,9.428,19.627z"/>
</svg>
