<?xml version="1.0" standalone="no"?>
<!DOCTYPE svg PUBLIC "-//W3C//DTD SVG 20010904//EN"
 "http://www.w3.org/TR/2001/REC-SVG-20010904/DTD/svg10.dtd">
<svg version="1.0" xmlns="http://www.w3.org/2000/svg"
 width="624.000000pt" height="624.000000pt" viewBox="0 0 624.000000 624.000000"
 preserveAspectRatio="xMidYMid meet">
<metadata>
Created by potrace 1.11, written by Peter Selinger 2001-2013
</metadata>
<g transform="translate(0.000000,624.000000) scale(0.100000,-0.100000)"
fill="#000000" stroke="none">
<path d="M3240 6220 c-18 -11 -24 -128 -10 -182 4 -18 11 -64 14 -103 4 -38 8
-88 11 -110 3 -22 7 -74 10 -115 2 -41 7 -95 10 -120 3 -25 8 -126 11 -225 3
-99 6 -213 8 -252 2 -68 1 -73 -19 -73 -25 0 -168 -102 -238 -169 -34 -33 -46
-51 -41 -64 10 -27 40 -20 77 18 31 32 57 45 57 29 0 -6 -65 -98 -85 -120 -34
-38 -100 -137 -187 -279 -83 -136 -93 -153 -139 -242 -23 -46 -48 -83 -55 -83
-19 0 -18 10 10 77 52 123 271 752 282 812 3 13 11 39 19 57 8 19 12 34 10 34
-3 0 0 11 5 25 25 66 82 309 95 405 7 52 11 73 19 115 4 17 9 46 12 65 2 19 7
46 9 60 26 143 26 165 -2 166 -24 1 -24 1 -72 -156 -39 -129 -36 -121 -46
-145 -16 -43 -230 -467 -237 -471 -4 -3 -8 -14 -8 -24 0 -10 -9 -34 -19 -52
-34 -57 -152 -343 -225 -543 -21 -55 -43 -116 -51 -135 -14 -36 -67 -205 -106
-342 -23 -77 -23 -78 -46 -63 -12 8 -40 15 -62 15 -35 0 -55 -11 -153 -85 -62
-47 -114 -82 -116 -77 -1 5 30 69 69 143 93 172 188 370 296 619 30 69 61 139
69 157 101 219 285 933 248 964 -20 17 -47 7 -55 -21 -61 -207 -107 -312 -269
-615 -147 -274 -435 -843 -547 -1080 -45 -93 -119 -249 -166 -345 -96 -199
-137 -292 -137 -315 0 -27 38 -55 75 -55 58 0 124 44 339 224 26 21 49 36 52
33 5 -5 -159 -194 -195 -227 -42 -37 -345 -395 -428 -505 -57 -76 -67 -97 -59
-129 18 -74 137 -81 334 -19 45 14 85 23 89 20 3 -4 4 -8 2 -10 -5 -3 -172
-150 -179 -157 -3 -3 -48 -43 -100 -90 -52 -47 -104 -94 -116 -105 -11 -11
-61 -57 -110 -101 -49 -45 -102 -94 -119 -109 -99 -90 -128 -116 -195 -175
-135 -116 -170 -153 -170 -177 0 -28 26 -43 65 -36 76 15 398 245 564 403 88
84 147 131 218 173 97 57 106 67 95 98 -8 21 5 38 111 154 66 71 140 155 166
185 25 30 57 66 71 79 22 21 304 191 317 191 13 0 -13 -30 -137 -157 -280
-288 -410 -429 -448 -488 -31 -49 -50 -68 -182 -175 -58 -46 -110 -89 -116
-95 -6 -5 -29 -27 -52 -47 -22 -20 -49 -49 -58 -64 -17 -25 -17 -27 2 -41 23
-17 57 -13 137 17 72 27 111 59 102 83 -7 16 -23 22 -55 18 -19 -3 9 24 127
122 48 40 94 81 101 90 11 13 19 14 40 6 55 -21 84 -4 191 107 187 195 378
440 597 765 131 194 136 203 128 222 -13 34 -46 10 -112 -80 -44 -61 -48 -63
-62 -45 -50 61 -123 70 -199 25 -25 -15 -50 -26 -55 -25 -5 2 -25 -13 -45 -32
-53 -51 -244 -167 -496 -301 -49 -26 -96 -52 -102 -58 -7 -5 -13 -6 -13 -1 0
4 -5 3 -12 -4 -7 -7 -16 -12 -20 -12 -17 0 -6 19 38 66 25 27 76 82 112 123
37 41 74 82 82 91 8 8 33 38 55 65 21 28 42 52 45 55 3 3 19 23 35 45 17 22
33 42 36 45 5 4 136 188 244 342 l30 43 5 -35 c4 -24 14 -41 38 -56 56 -38
130 -18 162 46 21 41 42 54 37 23 -1 -10 -6 -23 -9 -29 -4 -5 -10 -33 -14 -61
-6 -47 -4 -52 19 -68 54 -35 125 -21 179 35 32 34 35 56 12 88 -11 16 -13 27
-6 35 12 15 40 65 105 187 28 52 63 116 79 143 15 26 28 52 28 57 0 5 6 15 13
22 6 8 34 59 62 113 27 55 60 117 73 138 12 20 19 37 16 37 -4 0 -1 8 7 18 8
9 30 49 49 87 19 39 37 72 40 75 3 3 25 52 49 110 24 58 49 119 56 135 8 17
17 42 20 58 14 54 25 25 26 -65 0 -51 2 -204 4 -340 l4 -247 -26 -3 c-18 -2
-33 -14 -47 -40 -12 -21 -29 -47 -38 -58 -10 -11 -18 -24 -18 -28 0 -4 -13
-23 -28 -42 -16 -19 -48 -64 -73 -100 -24 -36 -47 -66 -51 -68 -5 -2 -8 -8 -8
-13 0 -5 -6 -17 -14 -26 -29 -36 -86 -113 -86 -117 0 -2 -9 -15 -20 -28 -11
-12 -49 -61 -85 -108 -36 -47 -69 -89 -73 -95 -57 -74 -63 -107 -21 -118 21
-6 74 6 92 21 7 5 22 13 35 16 18 6 22 3 22 -13 0 -12 5 -21 10 -21 14 0 13
-16 -3 -32 -34 -36 -87 -118 -87 -136 0 -11 12 -30 26 -41 l27 -21 -49 -53
c-101 -109 -123 -133 -141 -153 -82 -96 -166 -194 -212 -249 -9 -11 -59 -74
-111 -140 -52 -66 -97 -122 -100 -125 -3 -3 -25 -32 -50 -65 -24 -33 -49 -65
-55 -72 -35 -42 -123 -166 -179 -253 -26 -41 -56 -86 -65 -100 -33 -48 -91
-173 -91 -197 0 -28 37 -48 73 -39 47 11 152 101 343 291 189 188 267 274 340
370 21 28 41 52 44 55 14 10 30 49 30 70 0 12 -14 35 -31 51 l-30 28 77 113
c43 62 92 133 108 158 16 25 32 47 35 50 4 3 11 12 16 21 54 89 204 284 303
394 15 16 40 45 55 65 52 64 60 61 52 -16 -3 -38 -9 -72 -12 -77 -3 -5 -9 -34
-13 -65 -4 -32 -16 -100 -25 -152 -9 -52 -18 -111 -20 -130 -1 -19 -3 -35 -5
-35 -1 0 -3 -11 -4 -25 -2 -14 -6 -38 -10 -54 -4 -15 -9 -60 -12 -100 -3 -39
-7 -81 -9 -92 -2 -12 -7 -48 -10 -80 -4 -33 -14 -71 -22 -86 -7 -16 -11 -28
-9 -28 3 0 -11 -27 -30 -61 -18 -33 -34 -64 -34 -68 0 -5 -11 -21 -25 -37 -13
-15 -22 -30 -20 -32 2 -2 -9 -18 -25 -36 -17 -17 -30 -35 -30 -39 0 -4 -9 -17
-20 -29 -10 -12 -17 -25 -14 -30 3 -4 1 -8 -4 -8 -11 0 -92 -113 -92 -129 0
-5 -6 -14 -14 -18 -19 -11 -78 -131 -83 -169 -6 -41 31 -81 79 -89 26 -4 48 1
92 25 32 16 64 30 72 30 8 0 32 11 54 25 22 14 44 25 50 25 5 0 10 5 10 12 0
6 3 9 6 5 3 -3 29 9 57 27 67 43 146 86 155 86 5 0 14 -16 22 -35 26 -67 93
-55 148 27 15 22 36 50 47 63 11 12 21 29 23 36 2 8 8 16 13 17 5 2 9 10 9 17
0 7 4 15 10 17 11 4 140 255 140 274 0 8 4 14 10 14 5 0 9 3 8 7 -2 13 14 63
21 63 4 0 7 8 8 18 2 23 26 106 33 112 3 3 5 12 5 20 -1 8 2 20 6 25 4 6 10
22 13 35 2 14 11 52 20 85 8 33 17 78 20 100 7 52 15 94 23 125 7 31 11 64 18
165 2 44 8 105 11 135 9 76 8 705 0 870 -4 74 -9 189 -12 255 -5 118 -18 282
-30 360 -3 22 -6 52 -7 68 -1 15 -5 27 -8 27 -3 0 -6 6 -6 13 -3 44 -13 136
-18 157 -16 62 -31 150 -27 150 2 0 0 6 -6 13 -6 7 -13 28 -14 46 -1 18 -6 35
-10 37 -4 3 -8 16 -8 29 0 26 -35 147 -51 177 -5 10 -9 27 -9 38 0 11 -4 20
-10 20 -5 0 -10 11 -10 25 0 13 -9 47 -20 75 -11 28 -20 62 -20 75 0 14 -4 25
-8 25 -4 0 -15 28 -25 63 -10 34 -25 78 -34 97 -9 19 -17 40 -18 45 -2 13 -20
60 -49 127 -9 21 -17 41 -17 45 -1 11 -32 65 -46 80 -6 7 -23 13 -36 13 -24 0
-25 -1 -14 -37 6 -21 14 -40 17 -43 31 -29 126 -351 154 -525 3 -16 12 -59 19
-95 8 -36 18 -94 21 -129 3 -35 8 -73 11 -85 5 -21 10 -68 20 -176 3 -30 8
-84 11 -120 3 -36 7 -81 9 -100 2 -19 -1 -38 -7 -41 -19 -12 -48 3 -49 25 -1
59 -11 153 -16 166 -3 8 -7 29 -9 45 -3 32 -22 154 -30 195 -3 14 -6 34 -9 45
-2 11 -4 20 -5 20 -2 0 -6 18 -13 60 -7 43 -27 124 -46 195 -5 19 -17 62 -26
95 -28 109 -30 115 -38 135 -3 8 -8 31 -10 50 -3 19 -7 42 -10 50 -4 8 -9 32
-12 54 -3 21 -7 41 -9 45 -10 15 -19 91 -19 144 0 59 -10 70 -47 47z m64
-2133 c-5 -83 -8 -113 -18 -202 -4 -27 -8 -66 -10 -85 -8 -64 -26 -159 -36
-185 -13 -35 -34 -33 -24 3 12 42 8 71 -12 94 -16 17 -27 19 -71 15 -29 -3
-66 -15 -81 -26 -35 -25 -82 -37 -82 -22 0 6 4 11 9 11 5 0 14 14 21 30 7 17
15 30 19 30 4 0 15 15 26 33 10 17 57 90 103 161 46 71 91 144 100 162 8 19
19 34 23 34 4 0 9 9 12 21 3 12 10 18 16 15 6 -4 8 -39 5 -89z m-159 -2006 c6
-11 -29 -33 -39 -24 -7 7 12 33 25 33 4 0 10 -4 14 -9z"/>
<path d="M5928 2794 c-4 -3 -12 -6 -20 -7 -20 -3 -87 -46 -118 -76 -25 -25
-113 -102 -136 -120 -5 -4 -29 -21 -52 -36 -23 -15 -42 -31 -42 -35 0 -4 -8
-10 -17 -14 -10 -3 -38 -19 -63 -36 -25 -17 -53 -33 -62 -36 -10 -4 -18 -10
-18 -15 0 -5 -6 -9 -14 -9 -8 0 -21 -6 -28 -12 -8 -7 -29 -21 -48 -32 -19 -10
-50 -27 -67 -37 -18 -10 -33 -16 -33 -12 0 4 -7 -2 -15 -13 -8 -10 -15 -15
-15 -10 0 4 -15 -3 -34 -18 -19 -14 -40 -26 -46 -26 -6 0 -28 -11 -50 -25 -22
-14 -40 -22 -40 -18 0 5 -4 3 -8 -2 -9 -14 -290 -152 -326 -161 -14 -3 -26
-10 -26 -14 0 -10 -60 -32 -60 -22 0 4 -4 2 -8 -4 -4 -6 -29 -21 -57 -33 -27
-13 -59 -27 -70 -32 -11 -5 -31 -11 -44 -14 -12 -2 -30 -10 -38 -17 -8 -7 -22
-13 -31 -14 -8 -2 -29 -9 -46 -18 -26 -12 -47 -21 -76 -31 -3 -1 -12 -4 -20
-7 -8 -4 -24 -8 -35 -11 -11 -3 -45 -15 -75 -27 -30 -12 -62 -23 -71 -25 -9
-2 -38 -12 -65 -23 -50 -20 -73 -29 -87 -31 -4 0 -23 -7 -42 -15 -20 -9 -36
-15 -38 -14 -1 0 -36 -10 -77 -23 -41 -12 -77 -23 -80 -24 -3 -1 -12 -4 -20
-7 -42 -16 -77 -25 -92 -22 -10 1 -18 -1 -18 -6 0 -7 -47 -22 -75 -24 -5 -1
-16 -6 -22 -13 -7 -6 -24 -10 -38 -9 -14 2 -25 0 -25 -4 0 -8 -67 -25 -82 -22
-5 1 -8 -2 -8 -8 0 -5 -13 -10 -30 -10 -16 0 -30 -5 -30 -12 0 -6 -3 -9 -6 -6
-3 4 -20 2 -37 -4 -18 -5 -37 -10 -44 -12 -7 -1 -16 -5 -19 -9 -4 -4 -27 -7
-51 -7 -23 0 -43 -4 -43 -9 0 -5 -123 -8 -280 -7 -154 0 -280 3 -280 6 0 5
-90 8 -435 14 -318 6 -511 16 -610 32 -11 2 -54 6 -95 9 -41 4 -77 9 -80 13
-3 4 -14 8 -25 9 -34 2 -100 15 -108 20 -5 3 -27 7 -49 9 -22 2 -45 7 -52 11
-6 4 -16 8 -23 9 -7 1 -45 12 -85 25 -40 13 -76 22 -80 21 -5 -1 -8 3 -8 8 0
12 -67 14 -73 3 -6 -10 7 -45 16 -44 17 3 63 -13 75 -26 7 -7 21 -14 30 -15
27 -2 35 -4 65 -16 16 -7 34 -12 42 -12 7 0 15 -4 17 -10 1 -5 19 -10 38 -11
19 -2 40 -6 45 -9 6 -4 21 -10 35 -13 14 -3 45 -13 70 -22 25 -9 56 -19 70
-21 32 -5 150 -34 170 -42 8 -3 17 -6 20 -7 3 -1 12 -5 20 -8 8 -3 35 -8 60
-11 25 -2 45 -5 45 -6 0 -4 192 -40 245 -46 57 -6 93 -11 125 -18 17 -3 57 -8
90 -12 33 -3 76 -7 95 -10 19 -2 118 -6 220 -9 102 -3 190 -6 195 -6 15 -2
414 12 465 16 127 9 193 16 201 21 5 2 21 7 36 9 55 9 129 25 161 36 18 6 43
12 55 14 12 2 46 10 75 18 28 9 52 12 52 9 0 -3 5 -1 12 6 7 7 22 12 34 12 13
0 26 5 29 10 4 6 10 8 15 5 5 -3 18 -1 28 4 11 6 34 13 52 16 18 3 48 12 66
20 19 8 34 12 34 9 0 -3 10 1 23 8 12 7 28 11 35 10 6 -2 12 3 12 9 0 7 3 10
6 6 3 -3 23 1 45 8 22 8 40 14 42 14 3 0 28 8 52 17 11 4 25 8 30 8 6 1 33 9
60 20 28 10 82 29 120 43 39 14 77 27 85 30 8 4 18 5 23 5 4 -1 7 2 7 8 0 5
11 10 25 10 14 0 25 4 25 8 0 5 6 9 13 9 6 0 28 7 47 15 34 15 56 24 72 27 4
1 32 15 61 31 30 16 57 27 61 23 3 -3 6 0 6 7 0 7 3 10 7 7 3 -4 12 -2 20 4 7
6 13 8 13 5 0 -4 10 2 22 13 11 11 25 18 30 15 4 -3 22 4 38 16 17 12 30 18
30 15 0 -4 7 1 16 9 8 9 20 13 26 10 6 -4 13 -2 17 3 3 6 35 26 71 45 81 43
131 73 150 90 8 7 17 12 20 12 7 -2 34 8 40 15 3 4 22 15 43 26 20 11 37 23
37 28 0 4 4 6 10 2 5 -3 17 2 27 12 10 10 35 27 56 36 20 10 37 21 37 25 0 4
18 16 40 26 22 11 40 22 40 25 0 3 12 12 28 18 15 7 42 26 60 43 18 16 36 30
38 30 10 0 79 55 97 78 10 12 25 22 33 22 8 0 14 4 14 9 0 5 27 36 60 69 33
34 60 66 60 72 0 5 5 10 11 10 5 0 7 5 4 10 -3 6 -2 10 4 10 6 0 17 13 26 29
8 16 37 51 64 77 l50 49 -21 22 c-21 23 -39 29 -50 17z"/>
<path d="M6183 2717 c-4 -7 -8 -14 -9 -17 -2 -11 -16 -47 -31 -80 -18 -39
-149 -170 -170 -170 -7 0 -13 -4 -13 -8 0 -4 -15 -16 -32 -27 -18 -10 -35 -21
-38 -25 -3 -3 -27 -22 -55 -41 -27 -18 -51 -37 -53 -41 -2 -5 -10 -8 -18 -8
-8 0 -14 -4 -14 -8 0 -4 -13 -16 -30 -25 -16 -10 -35 -23 -42 -30 -20 -18 -89
-70 -130 -97 -21 -14 -38 -28 -38 -32 0 -5 -7 -8 -15 -8 -8 0 -15 -5 -15 -11
0 -5 -4 -8 -8 -5 -5 3 -33 -17 -63 -44 -30 -27 -62 -52 -71 -55 -10 -4 -18
-11 -18 -16 0 -5 -4 -9 -10 -9 -5 0 -19 -8 -29 -17 -54 -50 -69 -63 -75 -63
-4 0 -17 -11 -30 -25 -13 -14 -28 -25 -34 -25 -5 0 -12 -7 -16 -15 -3 -8 -11
-15 -18 -15 -7 0 -26 -16 -43 -35 -16 -19 -36 -35 -43 -35 -7 0 -15 -7 -18
-15 -4 -8 -10 -15 -15 -15 -4 0 -20 -11 -35 -25 -15 -14 -31 -25 -36 -25 -4 0
-27 -12 -51 -27 -23 -14 -44 -25 -46 -24 -2 2 -7 -1 -10 -6 -6 -10 -144 -85
-273 -150 -37 -19 -70 -38 -73 -44 -4 -5 -17 -9 -31 -9 -13 0 -24 -4 -24 -9 0
-5 -11 -12 -25 -15 -14 -4 -25 -11 -25 -16 0 -6 -8 -10 -17 -10 -10 0 -27 -7
-37 -15 -11 -8 -28 -15 -38 -15 -10 0 -18 -4 -18 -10 0 -5 -5 -10 -10 -10 -6
0 -26 -7 -46 -15 -19 -8 -38 -15 -42 -15 -4 -1 -13 -6 -19 -12 -7 -6 -13 -7
-13 -4 0 4 -17 -2 -37 -12 -55 -29 -109 -52 -122 -52 -6 0 -11 -5 -11 -10 0
-6 -6 -10 -12 -9 -20 2 -58 -12 -58 -22 0 -5 -8 -9 -17 -9 -10 0 -53 -13 -95
-29 -43 -16 -78 -27 -78 -25 0 3 -12 -3 -27 -13 -15 -10 -31 -18 -37 -18 -6
-1 -18 -4 -26 -7 -44 -18 -170 -57 -200 -63 -19 -3 -44 -10 -55 -14 -11 -5
-47 -17 -80 -26 -33 -10 -67 -20 -75 -23 -18 -6 -13 -5 -115 -27 -44 -9 -87
-19 -95 -22 -8 -3 -33 -7 -55 -9 -22 -2 -51 -7 -65 -10 -14 -4 -34 -8 -45 -9
-11 -1 -29 -4 -40 -8 -11 -3 -39 -7 -62 -9 -24 -1 -43 -4 -43 -7 0 -22 -722
-19 -758 3 -5 3 -32 6 -58 7 -27 1 -55 7 -63 13 -8 6 -16 9 -18 8 -6 -6 -83
10 -83 17 0 4 -16 8 -36 9 -20 2 -45 7 -55 12 -10 6 -24 10 -33 10 -8 0 -27 5
-43 12 -15 6 -31 10 -36 10 -4 -1 -24 5 -45 14 -20 9 -44 18 -53 20 -8 2 -29
10 -45 19 -16 8 -35 15 -41 15 -7 0 -13 5 -13 10 0 6 -7 10 -15 10 -8 0 -15 5
-15 11 0 5 -4 8 -9 5 -5 -3 -20 4 -35 15 -14 11 -26 18 -26 14 0 -8 -164 105
-168 117 -2 4 -9 8 -16 8 -7 0 -50 38 -97 84 -92 91 -161 166 -153 166 2 0 -2
13 -11 29 -28 55 -85 75 -85 30 0 -19 81 -145 119 -186 12 -12 21 -24 21 -26
0 -5 140 -145 174 -174 14 -13 44 -36 66 -52 21 -15 37 -30 35 -33 -2 -2 11
-12 30 -23 19 -10 35 -22 35 -27 0 -5 5 -6 10 -3 6 3 10 1 10 -4 0 -6 7 -11
15 -11 8 0 15 -4 15 -8 0 -5 20 -19 45 -33 79 -42 103 -55 129 -72 14 -10 33
-17 42 -17 10 0 26 -8 36 -17 10 -9 29 -18 41 -20 12 -2 39 -12 60 -23 21 -11
46 -20 57 -20 10 0 32 -5 47 -11 15 -6 37 -15 48 -19 21 -9 70 -21 95 -25 8
-1 35 -8 60 -15 25 -7 56 -14 70 -16 21 -3 54 -9 155 -28 6 -1 16 -5 22 -9 7
-4 32 -7 55 -7 24 1 88 -2 143 -5 167 -11 290 -8 455 11 30 3 66 7 80 9 14 1
36 5 50 8 14 4 45 9 70 11 25 2 56 7 70 10 14 3 45 10 70 15 25 5 56 12 70 15
14 3 41 9 60 12 54 10 219 52 230 59 6 4 23 9 38 11 15 3 47 12 72 21 25 8 50
16 55 17 6 2 17 5 25 9 37 13 57 19 80 23 13 3 38 11 55 19 39 17 78 29 88 27
4 -1 7 2 7 8 0 5 8 10 19 10 10 0 36 8 57 17 22 9 42 16 47 15 4 -1 7 3 7 9 0
6 6 9 14 6 7 -3 19 0 25 6 7 7 15 12 19 13 4 0 18 5 32 11 14 6 28 11 33 12 4
0 20 7 36 15 16 9 31 12 35 9 3 -4 6 -1 6 5 0 7 6 12 13 12 7 0 45 16 85 35
40 19 72 31 72 28 0 -3 9 2 21 13 12 10 23 18 25 16 6 -3 98 41 105 51 3 5 10
9 15 9 12 0 127 57 139 69 5 5 15 9 23 9 7 0 28 10 45 23 18 13 50 32 72 42
22 11 47 25 55 31 8 7 42 26 75 43 61 32 90 50 109 64 39 29 180 117 187 117
5 0 9 3 9 8 0 4 16 16 35 26 19 11 35 23 35 29 0 5 7 7 14 4 9 -4 17 2 21 14
4 10 13 19 21 19 8 0 22 6 30 13 8 6 20 17 27 22 7 6 30 24 52 40 22 17 49 38
60 48 11 10 32 26 48 35 15 9 27 23 27 31 0 8 3 12 6 8 6 -6 50 33 145 126 21
20 43 37 49 37 5 0 10 3 10 8 0 4 14 23 31 42 16 19 40 46 52 60 12 14 40 48
62 75 22 28 42 52 45 55 19 17 46 67 43 78 -5 13 67 132 80 132 4 0 7 6 7 14
0 8 6 21 13 28 30 29 80 167 68 185 -11 17 -40 23 -48 10z"/>
<path d="M6101 1553 c-12 -16 -25 -33 -30 -39 -5 -6 -20 -28 -33 -50 -33 -52
-87 -104 -178 -172 -41 -32 -78 -61 -81 -65 -15 -21 -179 -101 -188 -91 -3 3
2 11 13 18 64 39 95 67 90 81 -9 24 -43 14 -125 -36 -91 -57 -199 -119 -204
-119 -9 0 -111 -64 -132 -83 -21 -19 -22 -22 -8 -37 17 -19 57 -15 156 14 50
15 58 10 37 -23 -14 -23 -6 -47 21 -54 13 -3 41 9 80 34 33 21 63 39 66 39 12
0 206 131 310 209 129 97 234 201 264 259 25 50 31 120 10 133 -25 16 -47 10
-68 -18z"/>
<path d="M4714 947 c-16 -4 -42 -10 -57 -13 -64 -12 -421 -170 -464 -205 -7
-6 -13 -9 -13 -5 0 3 -23 -8 -51 -25 -73 -43 -182 -96 -264 -129 -140 -56
-210 -92 -242 -126 -18 -19 -41 -37 -50 -39 -131 -28 -164 -34 -198 -39 -22
-3 -51 -8 -65 -12 -52 -13 -541 -13 -585 1 -51 15 -84 3 -63 -22 20 -25 55
-33 162 -40 135 -9 466 -9 544 0 82 9 72 -7 -14 -23 -101 -19 -117 -20 -299
-21 -233 0 -359 23 -513 93 -54 24 -80 30 -135 30 -37 0 -67 3 -67 6 0 4 19
15 43 26 67 29 72 32 75 48 4 20 -48 39 -71 27 -9 -5 -44 -11 -79 -13 -71 -4
-58 -1 -268 -66 -85 -27 -171 -52 -190 -56 -19 -4 -39 -9 -45 -10 -159 -45
-355 -32 -494 33 -45 22 -89 35 -115 36 -62 0 -239 -32 -346 -63 -167 -50
-216 -60 -303 -64 -47 -2 -90 -7 -96 -11 -6 -3 -11 -2 -11 3 0 4 24 19 53 32
28 13 111 53 182 89 72 36 157 78 190 93 99 47 108 52 112 65 8 24 -32 33 -83
17 -27 -8 -60 -17 -74 -19 -14 -3 -50 -12 -80 -20 -30 -9 -66 -18 -80 -21 -14
-3 -63 -16 -110 -30 -46 -14 -91 -27 -100 -29 -8 -2 -71 -21 -140 -44 -69 -22
-147 -46 -175 -52 -63 -15 -85 -26 -85 -44 0 -24 28 -24 125 -1 31 8 110 31
177 53 106 34 131 26 45 -15 -37 -18 -69 -32 -72 -32 -2 0 -24 -14 -49 -31
-33 -22 -46 -37 -46 -54 0 -21 -5 -24 -48 -27 -26 -2 -66 0 -88 3 -44 6 -84
-4 -84 -20 0 -20 62 -30 197 -32 29 -1 53 -5 53 -8 0 -10 -59 -29 -113 -36
-50 -6 -137 -43 -137 -58 0 -44 92 -42 350 10 41 8 84 16 95 19 11 2 74 17
140 33 66 16 154 37 195 47 41 9 91 25 111 35 20 10 38 16 41 14 8 -9 89 -15
248 -21 91 -3 199 -8 240 -12 213 -20 519 44 824 172 22 9 41 14 44 11 8 -8
-28 -32 -78 -51 -25 -10 -69 -28 -98 -41 -28 -12 -55 -22 -58 -22 -4 0 -10 -4
-13 -9 -11 -17 -95 -55 -126 -58 -16 -1 -30 -3 -30 -4 0 -1 -13 -3 -30 -5 -16
-2 -36 -13 -45 -23 -8 -11 -24 -22 -35 -26 -73 -28 -413 -27 -689 0 -39 4 -80
8 -91 8 -11 1 -24 4 -30 7 -19 10 -40 4 -43 -13 -5 -25 57 -40 219 -53 31 -2
70 -7 85 -10 84 -16 414 -27 468 -15 23 4 57 11 76 14 19 3 60 13 90 22 30 10
75 18 100 19 101 5 188 17 232 31 26 9 85 17 132 19 124 4 159 21 98 47 -15 7
-29 13 -31 15 -2 1 4 9 13 18 37 37 1 59 -75 45 -29 -6 -54 -8 -56 -6 -13 13
111 65 142 61 29 -4 75 -20 116 -41 45 -22 172 -60 234 -70 17 -3 36 -7 43 -9
20 -7 238 -19 342 -19 135 0 221 10 335 39 55 15 109 28 120 30 80 18 284 95
424 161 101 48 113 51 105 30 -3 -8 4 -21 16 -29 27 -19 62 -16 170 13 88 24
142 28 630 46 85 3 218 7 295 8 155 3 175 6 290 43 123 38 362 157 373 185 2
4 8 8 14 8 5 0 20 8 33 18 12 9 33 24 45 32 54 36 61 53 30 70 -23 12 -48 2
-185 -82 -137 -83 -194 -113 -293 -152 -100 -40 -112 -42 -112 -21 0 17 -46
39 -61 29 -6 -3 -73 -8 -149 -11 -118 -4 -142 -2 -156 11 -13 13 -38 15 -159
12 -80 -3 -147 -1 -150 4 -3 5 16 20 42 34 26 13 59 33 72 45 13 12 30 21 38
21 7 0 13 3 13 8 0 4 20 17 44 30 24 13 48 34 55 48 6 13 14 24 19 24 19 0 74
60 69 75 -7 17 -47 21 -47 3 0 -6 -3 -9 -6 -6 -5 6 -14 -1 -65 -47 -9 -8 -18
-15 -22 -15 -3 0 -23 -11 -43 -25 -47 -32 -60 -31 -68 1 -6 23 -11 26 -35 21
-16 -3 -52 -20 -80 -36 -52 -31 -101 -49 -101 -36 0 9 16 23 98 85 39 30 72
60 72 66 0 32 -49 41 -116 21z"/>
</g>
</svg>
